<?xml version="1.0" encoding="iso-8859-1"?>
<!-- Uploaded to: SVG Repo, www.svgrepo.com, Generator: SVG Repo Mixer Tools -->
<svg height="800px" width="800px" version="1.1" id="Capa_1" xmlns="http://www.w3.org/2000/svg" xmlns:xlink="http://www.w3.org/1999/xlink" 
	 viewBox="0 0 179.006 179.006" xml:space="preserve">
<g>
	<path style="fill:#010002;" d="M135.848,46.327L89.509,0L43.176,46.327l-22.71,13.109v79.711l69.037,39.859l69.037-39.859V59.436
		L135.848,46.327z M151.021,60.993L109.94,84.527V49.161h20.58L151.021,60.993z M48.499,49.161h20.58v35.366L27.997,60.999
		L48.499,49.161z M86.961,171.625l-61.375-34.697V65.51l61.369,35.503v70.612H86.961z M89.581,96.186L74.186,86.89V44.041H52.693
		L89.509,7.226l36.816,36.816H104.82v42.854l-14.273,8.724L89.581,96.186z M153.432,136.617l-61.369,35.008v-70.612l61.369-35.503
		V136.617z"/>
</g>
</svg>